<?xml version="1.0" standalone="no"?><!DOCTYPE svg PUBLIC "-//W3C//DTD SVG 1.1//EN" "http://www.w3.org/Graphics/SVG/1.1/DTD/svg11.dtd"><svg t="1757834456653" class="icon" viewBox="0 0 1024 1024" version="1.1" xmlns="http://www.w3.org/2000/svg" p-id="3289" xmlns:xlink="http://www.w3.org/1999/xlink" width="200" height="200"><path d="M0 0m56.888889 0l910.222222 0q56.888889 0 56.888889 56.888889l0 910.222222q0 56.888889-56.888889 56.888889l-910.222222 0q-56.888889 0-56.888889-56.888889l0-910.222222q0-56.888889 56.888889-56.888889Z" fill="#2BA246" p-id="3290"></path><path d="M427.463111 282.225778c7.04-0.028444 13.795556 2.972444 18.744889 8.305778l54.328889 58.055111c0.995556 1.066667 2.346667 1.664 3.754667 1.664h210.901333c14.648889 0.014222 26.496 12.700444 26.510222 28.344889v306.119111c0 15.644444-11.875556 28.316444-26.510222 28.344889H280.220444c-14.648889-0.028444-26.510222-12.700444-26.524444-28.344889V310.570667c0.014222-15.644444 11.889778-28.330667 26.524444-28.344889z m86.513778 186.695111V512h-115.683556v57.443556h115.669334v43.093333l115.683555-71.822222-115.669333-71.793778z" fill="#FFFFFF" p-id="3291"></path></svg>